<svg id="visual" viewBox="0 0 960 540" width="960" height="540" xmlns="http://www.w3.org/2000/svg" xmlns:xlink="http://www.w3.org/1999/xlink" version="1.1"><path d="M0 21L31 21L62 27L93 29L124 25L155 25L186 25L217 27L248 31L279 22L310 24L341 24L372 29L403 22L434 23L465 22L495 23L526 22L557 22L588 23L619 30L650 30L681 24L712 30L743 29L774 30L805 24L836 21L867 28L898 28L929 25L960 30L960 0L929 0L898 0L867 0L836 0L805 0L774 0L743 0L712 0L681 0L650 0L619 0L588 0L557 0L526 0L495 0L465 0L434 0L403 0L372 0L341 0L310 0L279 0L248 0L217 0L186 0L155 0L124 0L93 0L62 0L31 0L0 0Z" fill="#ffffff" stroke-linecap="square" stroke-linejoin="bevel"></path></svg>