<svg xmlns="http://www.w3.org/2000/svg" xmlns:xlink="http://www.w3.org/1999/xlink" width="1080" zoomAndPan="magnify" viewBox="0 0 810 809.999993" height="1080" preserveAspectRatio="xMidYMid meet" version="1.0"><defs><g/><clipPath id="bf3ccfdba3"><path d="M 337 296 L 473 296 L 473 363.011719 L 337 363.011719 Z M 337 296 " clip-rule="nonzero"/></clipPath><clipPath id="24e92b1011"><path d="M 67 26.261719 L 743 26.261719 L 743 363.011719 L 67 363.011719 Z M 67 26.261719 " clip-rule="nonzero"/></clipPath><clipPath id="17d0c188ea"><path d="M 337 445.664062 L 473 445.664062 L 473 514 L 337 514 Z M 337 445.664062 " clip-rule="nonzero"/></clipPath><clipPath id="e4cd24bf29"><path d="M 67 445.664062 L 743 445.664062 L 743 783.511719 L 67 783.511719 Z M 67 445.664062 " clip-rule="nonzero"/></clipPath></defs><rect x="-81" width="972" fill="#ffffff" y="-80.999999" height="971.999992" fill-opacity="1"/><rect x="-81" width="972" fill="#382449" y="-80.999999" height="971.999992" fill-opacity="1"/><g clip-path="url(#bf3ccfdba3)"><path fill="#ffffff" d="M 472.335938 363.832031 C 472.335938 364.933594 472.308594 366.039062 472.253906 367.140625 C 472.199219 368.242188 472.117188 369.339844 472.011719 370.441406 C 471.902344 371.539062 471.765625 372.632812 471.605469 373.722656 C 471.445312 374.816406 471.253906 375.902344 471.039062 376.984375 C 470.824219 378.066406 470.582031 379.140625 470.316406 380.210938 C 470.046875 381.28125 469.753906 382.34375 469.433594 383.402344 C 469.113281 384.457031 468.765625 385.503906 468.394531 386.542969 C 468.023438 387.582031 467.625 388.609375 467.203125 389.628906 C 466.78125 390.648438 466.335938 391.65625 465.863281 392.65625 C 465.390625 393.652344 464.894531 394.636719 464.375 395.609375 C 463.855469 396.582031 463.3125 397.542969 462.742188 398.488281 C 462.175781 399.4375 461.585938 400.367188 460.972656 401.285156 C 460.359375 402.203125 459.726562 403.105469 459.070312 403.992188 C 458.410156 404.875 457.734375 405.746094 457.03125 406.597656 C 456.332031 407.453125 455.613281 408.285156 454.871094 409.105469 C 454.128906 409.921875 453.371094 410.722656 452.589844 411.5 C 451.808594 412.28125 451.011719 413.042969 450.195312 413.78125 C 449.375 414.523438 448.539062 415.242188 447.6875 415.945312 C 446.835938 416.644531 445.964844 417.320312 445.078125 417.980469 C 444.191406 418.636719 443.292969 419.273438 442.375 419.882812 C 441.457031 420.496094 440.523438 421.085938 439.578125 421.65625 C 438.632812 422.222656 437.671875 422.765625 436.699219 423.285156 C 435.726562 423.804688 434.742188 424.300781 433.746094 424.773438 C 432.746094 425.246094 431.738281 425.691406 430.71875 426.113281 C 429.699219 426.535156 428.671875 426.933594 427.632812 427.304688 C 426.59375 427.675781 425.546875 428.023438 424.488281 428.34375 C 423.433594 428.664062 422.371094 428.957031 421.300781 429.226562 C 420.230469 429.492188 419.15625 429.734375 418.074219 429.949219 C 416.992188 430.164062 415.902344 430.355469 414.8125 430.515625 C 413.722656 430.679688 412.625 430.8125 411.527344 430.921875 C 410.429688 431.03125 409.332031 431.109375 408.230469 431.164062 C 407.125 431.21875 406.023438 431.246094 404.921875 431.246094 C 403.816406 431.246094 402.714844 431.21875 401.613281 431.164062 C 400.511719 431.109375 399.410156 431.03125 398.3125 430.921875 C 397.214844 430.8125 396.121094 430.679688 395.027344 430.515625 C 393.9375 430.355469 392.851562 430.164062 391.769531 429.949219 C 390.6875 429.734375 389.609375 429.492188 388.539062 429.226562 C 387.46875 428.957031 386.40625 428.664062 385.351562 428.34375 C 384.296875 428.023438 383.25 427.675781 382.210938 427.304688 C 381.171875 426.933594 380.140625 426.535156 379.121094 426.113281 C 378.101562 425.691406 377.09375 425.246094 376.097656 424.773438 C 375.101562 424.300781 374.113281 423.804688 373.140625 423.285156 C 372.167969 422.765625 371.210938 422.222656 370.261719 421.65625 C 369.316406 421.085938 368.386719 420.496094 367.46875 419.882812 C 366.550781 419.273438 365.648438 418.636719 364.761719 417.980469 C 363.875 417.320312 363.007812 416.644531 362.152344 415.945312 C 361.300781 415.242188 360.464844 414.523438 359.648438 413.78125 C 358.832031 413.042969 358.03125 412.28125 357.25 411.5 C 356.472656 410.722656 355.710938 409.921875 354.96875 409.105469 C 354.230469 408.285156 353.507812 407.453125 352.808594 406.597656 C 352.109375 405.746094 351.429688 404.875 350.773438 403.992188 C 350.117188 403.105469 349.480469 402.203125 348.867188 401.285156 C 348.253906 400.367188 347.664062 399.4375 347.097656 398.488281 C 346.53125 397.542969 345.988281 396.582031 345.46875 395.609375 C 344.945312 394.636719 344.449219 393.652344 343.980469 392.65625 C 343.507812 391.65625 343.0625 390.648438 342.636719 389.628906 C 342.214844 388.609375 341.820312 387.582031 341.449219 386.542969 C 341.074219 385.503906 340.730469 384.457031 340.410156 383.402344 C 340.089844 382.34375 339.796875 381.28125 339.527344 380.210938 C 339.257812 379.140625 339.015625 378.066406 338.800781 376.984375 C 338.585938 375.902344 338.398438 374.816406 338.238281 373.722656 C 338.074219 372.632812 337.941406 371.539062 337.832031 370.441406 C 337.722656 369.339844 337.640625 368.242188 337.589844 367.140625 C 337.535156 366.039062 337.507812 364.933594 337.507812 363.832031 C 337.507812 362.730469 337.535156 361.625 337.589844 360.523438 C 337.640625 359.421875 337.722656 358.320312 337.832031 357.222656 C 337.941406 356.125 338.074219 355.03125 338.238281 353.941406 C 338.398438 352.847656 338.585938 351.761719 338.800781 350.679688 C 339.015625 349.597656 339.257812 348.523438 339.527344 347.453125 C 339.796875 346.382812 340.089844 345.320312 340.410156 344.261719 C 340.730469 343.207031 341.074219 342.160156 341.449219 341.121094 C 341.820312 340.082031 342.214844 339.054688 342.636719 338.035156 C 343.0625 337.015625 343.507812 336.007812 343.980469 335.007812 C 344.449219 334.011719 344.945312 333.027344 345.46875 332.054688 C 345.988281 331.078125 346.53125 330.121094 347.097656 329.175781 C 347.664062 328.226562 348.253906 327.296875 348.867188 326.378906 C 349.480469 325.460938 350.117188 324.558594 350.773438 323.671875 C 351.429688 322.789062 352.109375 321.917969 352.808594 321.066406 C 353.507812 320.210938 354.230469 319.375 354.96875 318.558594 C 355.710938 317.742188 356.472656 316.941406 357.25 316.164062 C 358.03125 315.382812 358.832031 314.621094 359.648438 313.882812 C 360.464844 313.140625 361.300781 312.421875 362.152344 311.71875 C 363.007812 311.019531 363.875 310.339844 364.761719 309.683594 C 365.648438 309.027344 366.550781 308.390625 367.46875 307.777344 C 368.386719 307.167969 369.316406 306.574219 370.261719 306.007812 C 371.210938 305.441406 372.167969 304.898438 373.140625 304.378906 C 374.113281 303.859375 375.101562 303.363281 376.097656 302.890625 C 377.09375 302.417969 378.101562 301.972656 379.121094 301.550781 C 380.140625 301.128906 381.171875 300.730469 382.210938 300.359375 C 383.25 299.988281 384.296875 299.640625 385.351562 299.320312 C 386.40625 299 387.46875 298.707031 388.539062 298.4375 C 389.609375 298.171875 390.6875 297.929688 391.769531 297.714844 C 392.851562 297.496094 393.9375 297.308594 395.027344 297.148438 C 396.121094 296.984375 397.214844 296.851562 398.3125 296.742188 C 399.410156 296.632812 400.511719 296.554688 401.613281 296.5 C 402.714844 296.445312 403.816406 296.417969 404.921875 296.417969 C 406.023438 296.417969 407.125 296.445312 408.230469 296.5 C 409.332031 296.554688 410.429688 296.632812 411.527344 296.742188 C 412.625 296.851562 413.722656 296.984375 414.8125 297.148438 C 415.902344 297.308594 416.992188 297.496094 418.074219 297.714844 C 419.15625 297.929688 420.230469 298.171875 421.300781 298.4375 C 422.371094 298.707031 423.433594 299 424.492188 299.320312 C 425.546875 299.640625 426.59375 299.988281 427.632812 300.359375 C 428.671875 300.730469 429.699219 301.128906 430.71875 301.550781 C 431.738281 301.972656 432.746094 302.417969 433.746094 302.890625 C 434.742188 303.363281 435.726562 303.859375 436.699219 304.378906 C 437.671875 304.898438 438.632812 305.441406 439.578125 306.007812 C 440.523438 306.574219 441.457031 307.167969 442.375 307.777344 C 443.292969 308.390625 444.191406 309.027344 445.078125 309.683594 C 445.964844 310.339844 446.835938 311.019531 447.6875 311.71875 C 448.539062 312.421875 449.375 313.140625 450.195312 313.882812 C 451.011719 314.621094 451.808594 315.382812 452.589844 316.164062 C 453.371094 316.941406 454.128906 317.742188 454.871094 318.558594 C 455.613281 319.375 456.332031 320.210938 457.03125 321.066406 C 457.734375 321.917969 458.410156 322.789062 459.070312 323.671875 C 459.726562 324.558594 460.359375 325.460938 460.972656 326.378906 C 461.585938 327.296875 462.175781 328.226562 462.742188 329.175781 C 463.3125 330.121094 463.855469 331.078125 464.375 332.054688 C 464.894531 333.027344 465.390625 334.011719 465.863281 335.007812 C 466.335938 336.007812 466.78125 337.015625 467.203125 338.035156 C 467.625 339.054688 468.023438 340.082031 468.394531 341.121094 C 468.765625 342.160156 469.113281 343.207031 469.433594 344.261719 C 469.753906 345.316406 470.046875 346.382812 470.316406 347.453125 C 470.582031 348.523438 470.824219 349.597656 471.039062 350.679688 C 471.253906 351.761719 471.445312 352.847656 471.605469 353.941406 C 471.765625 355.03125 471.902344 356.125 472.011719 357.222656 C 472.117188 358.320312 472.199219 359.421875 472.253906 360.523438 C 472.308594 361.625 472.335938 362.730469 472.335938 363.832031 Z M 472.335938 363.832031 " fill-opacity="1" fill-rule="nonzero"/></g><path fill="#ffffff" d="M 169.855469 311.410156 C 169.855469 313.003906 169.777344 314.59375 169.621094 316.183594 C 169.464844 317.769531 169.230469 319.34375 168.921875 320.90625 C 168.609375 322.46875 168.222656 324.015625 167.757812 325.539062 C 167.296875 327.066406 166.761719 328.566406 166.152344 330.039062 C 165.539062 331.511719 164.859375 332.949219 164.109375 334.355469 C 163.355469 335.761719 162.539062 337.128906 161.652344 338.453125 C 160.765625 339.777344 159.816406 341.058594 158.808594 342.289062 C 157.796875 343.523438 156.726562 344.703125 155.597656 345.828125 C 154.472656 346.957031 153.292969 348.023438 152.058594 349.035156 C 150.828125 350.046875 149.546875 350.996094 148.222656 351.882812 C 146.898438 352.769531 145.53125 353.585938 144.125 354.335938 C 142.71875 355.089844 141.28125 355.769531 139.808594 356.378906 C 138.335938 356.988281 136.835938 357.527344 135.3125 357.988281 C 133.785156 358.453125 132.242188 358.839844 130.675781 359.148438 C 129.113281 359.460938 127.539062 359.695312 125.953125 359.851562 C 124.367188 360.007812 122.773438 360.085938 121.179688 360.085938 C 119.585938 360.085938 117.996094 360.007812 116.410156 359.851562 C 114.824219 359.695312 113.25 359.460938 111.683594 359.148438 C 110.121094 358.839844 108.578125 358.453125 107.050781 357.988281 C 105.527344 357.527344 104.027344 356.988281 102.554688 356.378906 C 101.082031 355.769531 99.640625 355.089844 98.234375 354.335938 C 96.832031 353.585938 95.464844 352.769531 94.140625 351.882812 C 92.8125 350.996094 91.535156 350.046875 90.300781 349.035156 C 89.070312 348.023438 87.890625 346.957031 86.761719 345.828125 C 85.636719 344.703125 84.566406 343.523438 83.554688 342.289062 C 82.542969 341.058594 81.59375 339.777344 80.710938 338.453125 C 79.824219 337.128906 79.003906 335.761719 78.253906 334.355469 C 77.503906 332.949219 76.820312 331.511719 76.210938 330.039062 C 75.601562 328.566406 75.066406 327.066406 74.601562 325.539062 C 74.140625 324.015625 73.753906 322.46875 73.441406 320.90625 C 73.132812 319.34375 72.898438 317.769531 72.742188 316.183594 C 72.585938 314.59375 72.507812 313.003906 72.507812 311.410156 C 72.507812 309.816406 72.585938 308.226562 72.742188 306.640625 C 72.898438 305.054688 73.132812 303.476562 73.441406 301.914062 C 73.753906 300.351562 74.140625 298.808594 74.601562 297.28125 C 75.066406 295.757812 75.601562 294.257812 76.210938 292.785156 C 76.820312 291.3125 77.503906 289.871094 78.253906 288.464844 C 79.003906 287.058594 79.824219 285.695312 80.710938 284.367188 C 81.59375 283.042969 82.542969 281.765625 83.554688 280.53125 C 84.566406 279.300781 85.636719 278.121094 86.761719 276.992188 C 87.890625 275.867188 89.070312 274.796875 90.300781 273.785156 C 91.535156 272.773438 92.8125 271.824219 94.140625 270.941406 C 95.464844 270.054688 96.832031 269.234375 98.234375 268.484375 C 99.640625 267.734375 101.082031 267.050781 102.554688 266.441406 C 104.027344 265.832031 105.527344 265.296875 107.050781 264.832031 C 108.578125 264.371094 110.121094 263.984375 111.683594 263.671875 C 113.25 263.359375 114.824219 263.128906 116.410156 262.972656 C 117.996094 262.816406 119.585938 262.738281 121.179688 262.738281 C 122.773438 262.738281 124.367188 262.816406 125.953125 262.972656 C 127.539062 263.128906 129.113281 263.359375 130.675781 263.671875 C 132.242188 263.984375 133.785156 264.371094 135.3125 264.832031 C 136.835938 265.296875 138.335938 265.832031 139.808594 266.441406 C 141.28125 267.050781 142.71875 267.734375 144.125 268.484375 C 145.53125 269.234375 146.898438 270.054688 148.222656 270.941406 C 149.546875 271.824219 150.828125 272.773438 152.058594 273.785156 C 153.292969 274.796875 154.472656 275.867188 155.597656 276.992188 C 156.726562 278.121094 157.796875 279.300781 158.808594 280.53125 C 159.816406 281.765625 160.765625 283.042969 161.652344 284.367188 C 162.539062 285.695312 163.355469 287.058594 164.109375 288.464844 C 164.859375 289.871094 165.539062 291.3125 166.152344 292.785156 C 166.761719 294.257812 167.296875 295.757812 167.757812 297.28125 C 168.222656 298.808594 168.609375 300.351562 168.921875 301.914062 C 169.230469 303.476562 169.464844 305.054688 169.621094 306.640625 C 169.777344 308.226562 169.855469 309.816406 169.855469 311.410156 Z M 169.855469 311.410156 " fill-opacity="1" fill-rule="nonzero"/><path fill="#ffffff" d="M 667.8125 208.59375 C 694.648438 208.59375 716.484375 186.761719 716.484375 159.921875 C 716.484375 133.082031 694.648438 111.246094 667.8125 111.246094 C 640.972656 111.246094 619.136719 133.082031 619.136719 159.921875 C 619.136719 186.761719 640.972656 208.59375 667.8125 208.59375 Z M 667.8125 208.59375 " fill-opacity="1" fill-rule="nonzero"/><g clip-path="url(#24e92b1011)"><path fill="#ffffff" d="M 660.824219 363.832031 C 669.3125 355.5 677.28125 347.136719 684.664062 338.769531 C 736.144531 280.417969 753.855469 227.972656 734.527344 191.097656 C 733.816406 189.738281 733.050781 188.40625 732.242188 187.101562 C 728.957031 194.867188 724.289062 201.910156 718.570312 207.945312 C 727.53125 236.238281 709.785156 278.164062 668.722656 324.707031 C 661.503906 332.890625 653.695312 341.078125 645.363281 349.234375 C 613.9375 320.632812 576.515625 292.707031 535.003906 266.875 C 531.519531 236.964844 526.40625 208.5 519.792969 182.191406 C 547.65625 174.980469 574.128906 170.179688 598.367188 168.035156 C 598.058594 165.371094 597.882812 162.667969 597.882812 159.921875 C 597.882812 155.386719 598.328125 150.960938 599.15625 146.664062 C 572.988281 148.820312 544.347656 153.941406 514.226562 161.746094 C 510.851562 150.296875 507.179688 139.328125 503.203125 128.929688 C 477.917969 62.792969 443.015625 26.371094 404.921875 26.371094 C 366.828125 26.371094 331.921875 62.792969 306.640625 128.929688 C 302.679688 139.289062 299.015625 150.21875 295.652344 161.621094 C 271.113281 155.28125 247.449219 150.703125 225.117188 148.066406 C 147.847656 138.9375 94.640625 154.222656 75.3125 191.097656 C 67.855469 205.332031 65.910156 221.992188 69.375 240.488281 C 70.769531 247.933594 73.054688 255.675781 76.195312 263.679688 C 81.695312 259.046875 87.910156 255.25 94.65625 252.472656 C 91.398438 243.476562 89.1875 234.140625 88.953125 225.066406 C 88.738281 216.648438 90.21875 208.453125 94.140625 200.964844 C 108.871094 172.859375 155.703125 161.273438 222.625 169.175781 C 243.953125 171.695312 266.578125 176.066406 290.066406 182.121094 C 283.445312 208.449219 278.328125 236.9375 274.835938 266.875 C 251.882812 281.160156 230.183594 296.085938 210.054688 311.410156 L 164.5 349.214844 L 149.035156 363.816406 C 140.539062 372.152344 132.566406 380.523438 125.179688 388.894531 C 73.695312 447.246094 55.988281 499.6875 75.3125 536.566406 C 90.988281 566.472656 128.9375 582.175781 183.949219 582.175781 C 196.765625 582.175781 210.515625 581.324219 225.117188 579.597656 C 247.445312 576.960938 271.105469 572.386719 295.640625 566.046875 C 296.804688 569.984375 298.007812 573.859375 299.246094 577.679688 C 305.257812 573.9375 311.875 571.082031 318.921875 569.296875 C 317.988281 566.363281 317.074219 563.398438 316.1875 560.382812 C 344.992188 551.953125 374.796875 541.222656 404.921875 528.417969 C 435.109375 541.25 464.980469 552 493.84375 560.4375 C 471.496094 635.703125 437.53125 680.039062 404.921875 680.039062 C 400.84375 680.039062 396.769531 679.367188 392.699219 678.050781 C 388.167969 684.300781 382.625 689.773438 376.316406 694.230469 C 385.585938 698.914062 395.140625 701.292969 404.921875 701.292969 C 443.015625 701.292969 477.917969 664.871094 503.203125 598.734375 C 507.164062 588.375 510.824219 577.445312 514.1875 566.042969 C 538.726562 572.382812 562.394531 576.960938 584.722656 579.597656 C 599.332031 581.324219 613.074219 582.175781 625.894531 582.175781 C 680.898438 582.175781 718.855469 566.472656 734.527344 536.566406 C 753.855469 499.691406 736.144531 447.246094 684.664062 388.894531 C 677.28125 380.527344 669.3125 372.160156 660.824219 363.832031 Z M 272.179688 293.734375 C 270.308594 316.53125 269.339844 339.992188 269.339844 363.832031 C 269.339844 387.699219 270.296875 411.125 272.152344 433.847656 C 237.914062 411.609375 206.707031 387.898438 180.039062 363.800781 C 206.691406 339.675781 237.816406 316.015625 272.179688 293.734375 Z M 222.625 558.488281 C 155.699219 566.390625 108.871094 554.804688 94.140625 526.699219 C 79.414062 498.59375 96.535156 453.492188 141.117188 402.957031 C 148.347656 394.765625 156.164062 386.570312 164.507812 378.402344 C 195.941406 406.964844 233.488281 434.964844 274.804688 460.722656 C 278.289062 490.71875 283.402344 519.21875 290.039062 545.550781 C 266.5625 551.601562 243.945312 555.96875 222.625 558.488281 Z M 537.660156 293.734375 C 572.039062 316.023438 603.175781 339.695312 629.835938 363.832031 C 603.175781 387.96875 572.039062 411.636719 537.660156 433.929688 C 539.53125 411.132812 540.5 387.671875 540.5 363.832031 C 540.5 339.992188 539.53125 316.53125 537.660156 293.734375 Z M 511.925781 252.976562 C 499.578125 245.78125 486.925781 238.777344 474.007812 232.003906 C 459.980469 224.65625 445.914062 217.722656 431.867188 211.210938 C 454.835938 202.09375 477.5 194.242188 499.464844 187.800781 C 504.46875 207.765625 508.6875 229.5625 511.925781 252.976562 Z M 404.921875 47.625 C 437.550781 47.625 471.535156 92.011719 493.882812 167.355469 C 465.074219 175.78125 435.171875 186.5 404.996094 199.277344 C 374.78125 186.433594 344.886719 175.667969 315.996094 167.226562 C 338.34375 91.960938 372.3125 47.625 404.921875 47.625 Z M 310.394531 187.71875 C 332.449219 194.175781 355.132812 202.03125 378.121094 211.183594 C 364.003906 217.707031 349.878906 224.644531 335.835938 232.003906 C 322.914062 238.777344 310.265625 245.78125 297.914062 252.976562 C 301.160156 229.53125 305.382812 207.707031 310.394531 187.71875 Z M 310.628906 539.875 C 305.550781 519.488281 301.371094 497.640625 298.167969 474.8125 C 310.46875 481.988281 323.039062 488.953125 335.835938 495.660156 C 349.894531 503.027344 363.996094 509.972656 378.074219 516.496094 C 355.183594 525.609375 332.59375 533.433594 310.628906 539.875 Z M 499.445312 539.945312 C 477.410156 533.492188 454.742188 525.644531 431.765625 516.496094 C 445.84375 509.976562 459.949219 503.027344 474.007812 495.660156 C 486.925781 488.886719 499.578125 481.882812 511.925781 474.6875 C 508.679688 498.132812 504.460938 519.957031 499.445312 539.945312 Z M 515.117188 448.0625 C 498.707031 458.015625 481.679688 467.636719 464.136719 476.828125 C 444.40625 487.171875 424.601562 496.667969 404.921875 505.273438 C 385.242188 496.667969 365.4375 487.171875 345.703125 476.828125 C 328.292969 467.707031 311.316406 458.105469 294.914062 448.144531 C 292.078125 420.871094 290.597656 392.523438 290.597656 363.832031 C 290.597656 334.140625 292.058594 305.980469 294.726562 279.597656 C 311.132812 269.648438 328.160156 260.027344 345.703125 250.832031 C 365.410156 240.507812 385.246094 231.019531 404.980469 222.414062 C 424.640625 231.015625 444.425781 240.503906 464.136719 250.832031 C 481.679688 260.027344 498.707031 269.648438 515.117188 279.597656 C 517.785156 305.980469 519.242188 334.140625 519.242188 363.832031 C 519.242188 393.523438 517.785156 421.683594 515.117188 448.0625 Z M 715.699219 526.699219 C 700.96875 554.804688 654.136719 566.386719 587.214844 558.488281 C 565.886719 555.96875 543.261719 551.597656 519.777344 545.542969 C 526.394531 519.214844 531.515625 490.726562 535.003906 460.789062 C 576.515625 434.957031 613.9375 407.03125 645.363281 378.429688 C 653.695312 386.585938 661.503906 394.773438 668.722656 402.957031 C 713.304688 453.492188 730.429688 498.59375 715.699219 526.699219 Z M 715.699219 526.699219 " fill-opacity="1" fill-rule="nonzero"/></g><g clip-path="url(#17d0c188ea)"><path fill="#ffffff" d="M 472.34375 446.078125 C 472.34375 447.179688 472.316406 448.28125 472.261719 449.386719 C 472.207031 450.488281 472.125 451.585938 472.019531 452.683594 C 471.910156 453.78125 471.773438 454.878906 471.613281 455.96875 C 471.453125 457.058594 471.261719 458.148438 471.046875 459.230469 C 470.832031 460.3125 470.589844 461.386719 470.324219 462.457031 C 470.054688 463.527344 469.761719 464.589844 469.441406 465.644531 C 469.121094 466.703125 468.773438 467.75 468.402344 468.789062 C 468.03125 469.828125 467.632812 470.855469 467.210938 471.875 C 466.789062 472.894531 466.34375 473.902344 465.871094 474.898438 C 465.398438 475.898438 464.902344 476.882812 464.382812 477.855469 C 463.863281 478.828125 463.320312 479.789062 462.75 480.734375 C 462.183594 481.679688 461.59375 482.613281 460.980469 483.53125 C 460.367188 484.445312 459.734375 485.347656 459.078125 486.234375 C 458.417969 487.121094 457.742188 487.992188 457.039062 488.84375 C 456.339844 489.695312 455.621094 490.53125 454.878906 491.347656 C 454.140625 492.167969 453.378906 492.964844 452.597656 493.746094 C 451.816406 494.527344 451.019531 495.285156 450.203125 496.027344 C 449.382812 496.769531 448.550781 497.488281 447.695312 498.1875 C 446.84375 498.886719 445.972656 499.566406 445.085938 500.222656 C 444.203125 500.882812 443.300781 501.515625 442.382812 502.128906 C 441.464844 502.742188 440.535156 503.332031 439.585938 503.898438 C 438.640625 504.464844 437.679688 505.011719 436.707031 505.53125 C 435.734375 506.050781 434.75 506.546875 433.753906 507.019531 C 432.753906 507.488281 431.746094 507.9375 430.726562 508.359375 C 429.707031 508.78125 428.679688 509.179688 427.640625 509.550781 C 426.601562 509.921875 425.554688 510.265625 424.5 510.585938 C 423.441406 510.90625 422.378906 511.203125 421.308594 511.46875 C 420.238281 511.738281 419.164062 511.980469 418.082031 512.195312 C 417 512.410156 415.914062 512.597656 414.820312 512.761719 C 413.730469 512.921875 412.636719 513.058594 411.539062 513.164062 C 410.441406 513.273438 409.339844 513.355469 408.238281 513.410156 C 407.136719 513.464844 406.03125 513.488281 404.929688 513.488281 C 403.828125 513.488281 402.722656 513.464844 401.621094 513.410156 C 400.519531 513.355469 399.421875 513.273438 398.324219 513.164062 C 397.222656 513.058594 396.128906 512.921875 395.039062 512.761719 C 393.945312 512.597656 392.859375 512.410156 391.777344 512.195312 C 390.695312 511.980469 389.621094 511.738281 388.550781 511.46875 C 387.480469 511.203125 386.417969 510.90625 385.359375 510.585938 C 384.304688 510.265625 383.257812 509.921875 382.21875 509.550781 C 381.179688 509.179688 380.152344 508.78125 379.132812 508.359375 C 378.113281 507.9375 377.105469 507.488281 376.105469 507.019531 C 375.109375 506.546875 374.125 506.050781 373.152344 505.53125 C 372.179688 505.011719 371.21875 504.464844 370.273438 503.898438 C 369.328125 503.332031 368.394531 502.742188 367.476562 502.128906 C 366.558594 501.515625 365.65625 500.882812 364.773438 500.222656 C 363.886719 499.566406 363.015625 498.886719 362.164062 498.1875 C 361.3125 497.488281 360.476562 496.769531 359.65625 496.027344 C 358.839844 495.285156 358.042969 494.527344 357.261719 493.746094 C 356.480469 492.964844 355.722656 492.167969 354.980469 491.347656 C 354.238281 490.53125 353.519531 489.695312 352.820312 488.84375 C 352.117188 487.992188 351.441406 487.121094 350.785156 486.234375 C 350.125 485.347656 349.492188 484.445312 348.878906 483.53125 C 348.265625 482.613281 347.675781 481.679688 347.109375 480.734375 C 346.539062 479.789062 345.996094 478.828125 345.476562 477.855469 C 344.957031 476.882812 344.460938 475.898438 343.988281 474.898438 C 343.515625 473.902344 343.070312 472.894531 342.648438 471.875 C 342.226562 470.855469 341.828125 469.828125 341.457031 468.789062 C 341.085938 467.75 340.738281 466.703125 340.417969 465.644531 C 340.097656 464.589844 339.804688 463.527344 339.539062 462.457031 C 339.269531 461.386719 339.027344 460.3125 338.8125 459.230469 C 338.597656 458.148438 338.410156 457.058594 338.246094 455.96875 C 338.085938 454.878906 337.949219 453.78125 337.839844 452.683594 C 337.734375 451.585938 337.652344 450.488281 337.597656 449.386719 C 337.542969 448.28125 337.515625 447.179688 337.515625 446.078125 C 337.515625 444.972656 337.542969 443.871094 337.597656 442.769531 C 337.652344 441.667969 337.734375 440.566406 337.839844 439.46875 C 337.949219 438.371094 338.085938 437.277344 338.246094 436.1875 C 338.410156 435.09375 338.597656 434.007812 338.8125 432.925781 C 339.027344 431.84375 339.269531 430.765625 339.539062 429.695312 C 339.804688 428.625 340.097656 427.5625 340.417969 426.507812 C 340.738281 425.453125 341.085938 424.40625 341.457031 423.367188 C 341.828125 422.328125 342.226562 421.296875 342.648438 420.277344 C 343.070312 419.261719 343.515625 418.25 343.988281 417.253906 C 344.460938 416.257812 344.957031 415.273438 345.476562 414.300781 C 345.996094 413.324219 346.539062 412.367188 347.109375 411.417969 C 347.675781 410.472656 348.265625 409.542969 348.878906 408.625 C 349.492188 407.707031 350.125 406.804688 350.785156 405.917969 C 351.441406 405.03125 352.117188 404.164062 352.820312 403.3125 C 353.519531 402.457031 354.238281 401.621094 354.980469 400.804688 C 355.722656 399.988281 356.480469 399.1875 357.261719 398.410156 C 358.042969 397.628906 358.839844 396.867188 359.65625 396.128906 C 360.476562 395.386719 361.3125 394.667969 362.164062 393.964844 C 363.015625 393.265625 363.886719 392.585938 364.773438 391.929688 C 365.65625 391.273438 366.558594 390.636719 367.476562 390.023438 C 368.394531 389.414062 369.328125 388.820312 370.273438 388.253906 C 371.21875 387.6875 372.179688 387.144531 373.152344 386.625 C 374.125 386.105469 375.109375 385.609375 376.105469 385.136719 C 377.105469 384.664062 378.113281 384.21875 379.132812 383.796875 C 380.152344 383.375 381.179688 382.976562 382.21875 382.605469 C 383.257812 382.234375 384.304688 381.886719 385.359375 381.566406 C 386.417969 381.246094 387.480469 380.953125 388.550781 380.683594 C 389.621094 380.417969 390.695312 380.175781 391.777344 379.960938 C 392.859375 379.746094 393.945312 379.554688 395.039062 379.394531 C 396.128906 379.230469 397.222656 379.097656 398.324219 378.988281 C 399.421875 378.878906 400.519531 378.800781 401.621094 378.746094 C 402.722656 378.691406 403.828125 378.664062 404.929688 378.664062 C 406.03125 378.664062 407.136719 378.691406 408.238281 378.746094 C 409.339844 378.800781 410.441406 378.878906 411.539062 378.988281 C 412.636719 379.097656 413.730469 379.230469 414.820312 379.394531 C 415.914062 379.554688 417 379.746094 418.082031 379.960938 C 419.164062 380.175781 420.238281 380.417969 421.308594 380.683594 C 422.378906 380.953125 423.441406 381.246094 424.5 381.566406 C 425.554688 381.886719 426.601562 382.234375 427.640625 382.605469 C 428.679688 382.976562 429.707031 383.375 430.726562 383.796875 C 431.746094 384.21875 432.753906 384.664062 433.753906 385.136719 C 434.75 385.609375 435.734375 386.105469 436.707031 386.625 C 437.679688 387.144531 438.640625 387.6875 439.585938 388.253906 C 440.535156 388.820312 441.464844 389.414062 442.382812 390.023438 C 443.300781 390.636719 444.203125 391.273438 445.085938 391.929688 C 445.972656 392.585938 446.84375 393.265625 447.695312 393.964844 C 448.550781 394.667969 449.382812 395.386719 450.203125 396.128906 C 451.019531 396.867188 451.816406 397.628906 452.597656 398.410156 C 453.378906 399.1875 454.140625 399.988281 454.878906 400.804688 C 455.621094 401.621094 456.339844 402.457031 457.039062 403.3125 C 457.742188 404.164062 458.417969 405.03125 459.078125 405.917969 C 459.734375 406.804688 460.367188 407.707031 460.980469 408.625 C 461.59375 409.542969 462.183594 410.472656 462.75 411.417969 C 463.320312 412.367188 463.863281 413.324219 464.382812 414.300781 C 464.902344 415.273438 465.398438 416.257812 465.871094 417.253906 C 466.34375 418.25 466.789062 419.261719 467.210938 420.277344 C 467.632812 421.296875 468.03125 422.328125 468.402344 423.367188 C 468.773438 424.40625 469.121094 425.453125 469.441406 426.507812 C 469.761719 427.5625 470.054688 428.625 470.324219 429.695312 C 470.589844 430.765625 470.832031 431.84375 471.046875 432.925781 C 471.261719 434.007812 471.453125 435.09375 471.613281 436.1875 C 471.773438 437.277344 471.910156 438.371094 472.019531 439.46875 C 472.125 440.566406 472.207031 441.667969 472.261719 442.769531 C 472.316406 443.871094 472.34375 444.972656 472.34375 446.078125 Z M 472.34375 446.078125 " fill-opacity="1" fill-rule="nonzero"/></g><path fill="#ffffff" d="M 384.753906 719.335938 C 384.753906 720.929688 384.675781 722.519531 384.519531 724.105469 C 384.363281 725.695312 384.128906 727.269531 383.816406 728.832031 C 383.507812 730.394531 383.121094 731.941406 382.65625 733.464844 C 382.195312 734.992188 381.65625 736.488281 381.046875 737.960938 C 380.4375 739.4375 379.757812 740.875 379.003906 742.28125 C 378.253906 743.6875 377.4375 745.050781 376.550781 746.378906 C 375.664062 747.703125 374.714844 748.980469 373.703125 750.214844 C 372.691406 751.445312 371.625 752.625 370.496094 753.753906 C 369.371094 754.882812 368.191406 755.949219 366.957031 756.960938 C 365.726562 757.972656 364.445312 758.921875 363.121094 759.808594 C 361.796875 760.691406 360.429688 761.511719 359.023438 762.261719 C 357.617188 763.015625 356.179688 763.695312 354.707031 764.304688 C 353.234375 764.914062 351.734375 765.449219 350.207031 765.914062 C 348.683594 766.375 347.136719 766.761719 345.574219 767.074219 C 344.011719 767.386719 342.4375 767.621094 340.851562 767.777344 C 339.265625 767.933594 337.671875 768.011719 336.078125 768.011719 C 334.484375 768.011719 332.894531 767.933594 331.308594 767.777344 C 329.722656 767.621094 328.148438 767.386719 326.582031 767.074219 C 325.019531 766.761719 323.476562 766.375 321.949219 765.914062 C 320.425781 765.449219 318.925781 764.914062 317.453125 764.304688 C 315.980469 763.695312 314.539062 763.015625 313.136719 762.261719 C 311.730469 761.511719 310.363281 760.691406 309.039062 759.808594 C 307.710938 758.921875 306.433594 757.972656 305.203125 756.960938 C 303.96875 755.949219 302.789062 754.882812 301.660156 753.753906 C 300.535156 752.625 299.464844 751.445312 298.453125 750.214844 C 297.441406 748.980469 296.496094 747.703125 295.609375 746.378906 C 294.722656 745.050781 293.90625 743.6875 293.152344 742.28125 C 292.402344 740.875 291.722656 739.4375 291.109375 737.960938 C 290.5 736.488281 289.964844 734.992188 289.5 733.464844 C 289.039062 731.941406 288.652344 730.394531 288.339844 728.832031 C 288.03125 727.269531 287.796875 725.695312 287.640625 724.105469 C 287.484375 722.519531 287.40625 720.929688 287.40625 719.335938 C 287.40625 717.742188 287.484375 716.152344 287.640625 714.566406 C 287.796875 712.980469 288.03125 711.402344 288.339844 709.839844 C 288.652344 708.277344 289.039062 706.734375 289.5 705.207031 C 289.964844 703.679688 290.5 702.183594 291.109375 700.710938 C 291.722656 699.238281 292.402344 697.796875 293.152344 696.390625 C 293.90625 694.984375 294.722656 693.621094 295.609375 692.292969 C 296.496094 690.96875 297.441406 689.691406 298.453125 688.457031 C 299.464844 687.226562 300.535156 686.046875 301.660156 684.917969 C 302.789062 683.792969 303.96875 682.722656 305.203125 681.710938 C 306.433594 680.699219 307.710938 679.75 309.039062 678.867188 C 310.363281 677.980469 311.730469 677.160156 313.136719 676.410156 C 314.539062 675.660156 315.980469 674.976562 317.453125 674.367188 C 318.925781 673.757812 320.425781 673.222656 321.949219 672.757812 C 323.476562 672.296875 325.019531 671.910156 326.582031 671.597656 C 328.148438 671.289062 329.722656 671.054688 331.308594 670.898438 C 332.894531 670.742188 334.484375 670.664062 336.078125 670.664062 C 337.671875 670.664062 339.265625 670.742188 340.851562 670.898438 C 342.4375 671.054688 344.011719 671.285156 345.574219 671.597656 C 347.136719 671.910156 348.683594 672.296875 350.207031 672.757812 C 351.734375 673.222656 353.234375 673.757812 354.707031 674.367188 C 356.179688 674.976562 357.617188 675.660156 359.023438 676.410156 C 360.429688 677.160156 361.796875 677.980469 363.121094 678.867188 C 364.445312 679.75 365.726562 680.699219 366.957031 681.710938 C 368.191406 682.722656 369.371094 683.792969 370.496094 684.917969 C 371.625 686.046875 372.691406 687.226562 373.703125 688.457031 C 374.714844 689.691406 375.664062 690.96875 376.550781 692.292969 C 377.4375 693.621094 378.253906 694.984375 379.003906 696.390625 C 379.757812 697.796875 380.4375 699.238281 381.046875 700.710938 C 381.65625 702.183594 382.195312 703.679688 382.65625 705.207031 C 383.121094 706.734375 383.507812 708.277344 383.816406 709.839844 C 384.128906 711.402344 384.363281 712.980469 384.519531 714.566406 C 384.675781 716.152344 384.753906 717.742188 384.753906 719.335938 Z M 384.753906 719.335938 " fill-opacity="1" fill-rule="nonzero"/><g clip-path="url(#e4cd24bf29)"><path fill="#ffffff" d="M 660.828125 446.078125 C 669.316406 437.746094 677.285156 429.382812 684.667969 421.015625 C 736.148438 362.664062 753.859375 310.222656 734.53125 273.347656 C 733.820312 271.984375 733.054688 270.65625 732.246094 269.347656 C 728.960938 277.117188 724.292969 284.15625 718.574219 290.195312 C 727.535156 318.484375 709.789062 360.410156 668.726562 406.953125 C 661.507812 415.136719 653.699219 423.324219 645.367188 431.480469 C 613.941406 402.878906 576.523438 374.953125 535.011719 349.121094 C 531.523438 319.210938 526.410156 290.746094 519.800781 264.441406 C 547.664062 257.230469 574.136719 252.429688 598.371094 250.285156 C 598.0625 247.621094 597.886719 244.914062 597.886719 242.167969 C 597.886719 237.636719 598.335938 233.207031 599.164062 228.914062 C 572.996094 231.070312 544.355469 236.1875 514.234375 243.996094 C 510.859375 232.546875 507.1875 221.578125 503.210938 211.179688 C 477.925781 145.042969 443.023438 108.621094 404.929688 108.621094 C 366.835938 108.621094 331.933594 145.042969 306.648438 211.179688 C 302.6875 221.539062 299.027344 232.464844 295.664062 243.871094 C 271.125 237.527344 247.460938 232.953125 225.128906 230.3125 C 147.859375 221.1875 94.652344 236.46875 75.328125 273.347656 C 67.867188 287.582031 65.925781 304.242188 69.390625 322.734375 C 70.785156 330.179688 73.066406 337.925781 76.210938 345.925781 C 81.710938 341.292969 87.925781 337.496094 94.671875 334.71875 C 91.414062 325.726562 89.199219 316.390625 88.96875 307.3125 C 88.75 298.894531 90.234375 290.699219 94.15625 283.214844 C 108.886719 255.109375 155.71875 243.523438 222.636719 251.425781 C 243.964844 253.941406 266.589844 258.316406 290.074219 264.367188 C 283.457031 290.695312 278.339844 319.183594 274.847656 349.121094 C 251.894531 363.40625 230.195312 378.332031 210.066406 393.65625 L 164.515625 431.460938 L 149.046875 446.0625 C 140.550781 454.398438 132.578125 462.765625 125.191406 471.136719 C 73.710938 529.488281 56.003906 581.933594 75.328125 618.808594 C 91 648.714844 128.949219 664.417969 183.960938 664.417969 C 196.777344 664.417969 210.527344 663.566406 225.128906 661.839844 C 247.457031 659.203125 271.117188 654.628906 295.652344 648.289062 C 296.816406 652.226562 298.019531 656.101562 299.253906 659.921875 C 305.269531 656.179688 311.886719 653.324219 318.929688 651.539062 C 318 648.605469 317.085938 645.640625 316.195312 642.625 C 345.003906 634.195312 374.808594 623.464844 404.929688 610.660156 C 435.117188 623.492188 464.988281 634.242188 493.851562 642.679688 C 471.503906 717.941406 437.539062 762.277344 404.929688 762.277344 C 400.855469 762.277344 396.777344 761.605469 392.710938 760.289062 C 388.175781 766.542969 382.636719 772.011719 376.324219 776.46875 C 385.59375 781.15625 395.148438 783.535156 404.929688 783.535156 C 443.023438 783.535156 477.925781 747.113281 503.210938 680.976562 C 507.171875 670.617188 510.832031 659.6875 514.195312 648.285156 C 538.734375 654.625 562.398438 659.203125 584.730469 661.839844 C 599.335938 663.566406 613.078125 664.417969 625.898438 664.417969 C 680.902344 664.417969 718.859375 648.714844 734.53125 618.808594 C 753.859375 581.933594 736.148438 529.488281 684.667969 471.136719 C 677.285156 462.773438 669.316406 454.40625 660.828125 446.078125 Z M 272.191406 375.980469 C 270.320312 398.777344 269.351562 422.238281 269.351562 446.078125 C 269.351562 469.945312 270.308594 493.367188 272.164062 516.09375 C 237.925781 493.851562 206.722656 470.144531 180.050781 446.046875 C 206.707031 421.921875 237.828125 398.261719 272.191406 375.980469 Z M 222.636719 640.730469 C 155.710938 648.632812 108.886719 637.046875 94.15625 608.941406 C 79.425781 580.835938 96.550781 535.734375 141.132812 485.203125 C 148.359375 477.007812 156.175781 468.8125 164.519531 460.648438 C 195.953125 489.207031 233.5 517.207031 274.816406 542.964844 C 278.300781 572.964844 283.414062 601.460938 290.050781 627.792969 C 266.574219 633.84375 243.957031 638.210938 222.636719 640.730469 Z M 537.667969 375.980469 C 572.042969 398.269531 603.179688 421.941406 629.84375 446.078125 C 603.179688 470.210938 572.046875 493.882812 537.667969 516.171875 C 539.539062 493.378906 540.507812 469.917969 540.507812 446.078125 C 540.507812 422.238281 539.539062 398.777344 537.667969 375.980469 Z M 511.933594 335.222656 C 499.585938 328.027344 486.933594 321.023438 474.015625 314.253906 C 459.988281 306.902344 445.921875 299.96875 431.875 293.460938 C 454.84375 284.339844 477.507812 276.492188 499.472656 270.046875 C 504.476562 290.011719 508.691406 311.8125 511.933594 335.222656 Z M 404.929688 129.878906 C 437.558594 129.878906 471.542969 174.261719 493.890625 249.601562 C 465.082031 258.027344 435.179688 268.75 405.003906 281.527344 C 374.789062 268.679688 344.894531 257.917969 316.007812 249.476562 C 338.355469 174.210938 372.320312 129.878906 404.929688 129.878906 Z M 310.40625 269.96875 C 332.457031 276.425781 355.140625 284.28125 378.132812 293.433594 C 364.011719 299.953125 349.890625 306.894531 335.84375 314.253906 C 322.925781 321.023438 310.273438 328.027344 297.925781 335.222656 C 301.171875 311.78125 305.394531 289.953125 310.40625 269.96875 Z M 310.640625 622.117188 C 305.558594 601.730469 301.382812 579.886719 298.179688 557.058594 C 310.476562 564.230469 323.046875 571.195312 335.84375 577.902344 C 349.902344 585.269531 364.003906 592.21875 378.085938 598.738281 C 355.191406 607.851562 332.605469 615.675781 310.640625 622.117188 Z M 499.453125 622.1875 C 477.417969 615.734375 454.75 607.886719 431.773438 598.738281 C 445.855469 592.21875 459.957031 585.269531 474.015625 577.902344 C 486.933594 571.128906 499.585938 564.125 511.933594 556.929688 C 508.6875 580.375 504.464844 602.199219 499.453125 622.1875 Z M 515.121094 530.308594 C 498.714844 540.257812 481.6875 549.878906 464.144531 559.074219 C 444.414062 569.414062 424.609375 578.910156 404.929688 587.519531 C 385.25 578.910156 365.445312 569.414062 345.714844 559.074219 C 328.300781 549.949219 311.328125 540.347656 294.921875 530.386719 C 292.089844 503.117188 290.609375 474.769531 290.609375 446.078125 C 290.609375 416.386719 292.066406 388.226562 294.738281 361.847656 C 311.144531 351.894531 328.171875 342.273438 345.714844 333.082031 C 365.417969 322.753906 385.257812 313.269531 404.988281 304.660156 C 424.648438 313.261719 444.433594 322.75 464.144531 333.082031 C 481.6875 342.273438 498.714844 351.894531 515.121094 361.847656 C 517.792969 388.226562 519.25 416.386719 519.25 446.078125 C 519.25 475.769531 517.792969 503.925781 515.121094 530.308594 Z M 715.703125 608.941406 C 700.972656 637.046875 654.144531 648.628906 587.222656 640.730469 C 565.894531 638.210938 543.269531 633.839844 519.785156 627.785156 C 526.402344 601.457031 531.523438 572.96875 535.011719 543.035156 C 576.523438 517.203125 613.941406 489.273438 645.367188 460.675781 C 653.699219 468.832031 661.507812 477.019531 668.726562 485.203125 C 713.308594 535.734375 730.433594 580.835938 715.703125 608.941406 Z M 715.703125 608.941406 " fill-opacity="1" fill-rule="nonzero"/></g><g fill="#ffffff" fill-opacity="1"><g transform="translate(115.588027, 425.340668)"><g><path d="M 18.578125 -46.296875 L 0.328125 -46.296875 L 0.328125 -57.0625 L 50.046875 -57.0625 L 50.046875 -46.296875 L 31.796875 -46.296875 L 31.796875 0 L 18.578125 0 Z M 18.578125 -46.296875 "/></g></g></g><g fill="#ffffff" fill-opacity="1"><g transform="translate(165.961224, 425.340668)"><g><path d="M 32.53125 -44.5 C 37.957031 -44.5 42.34375 -42.867188 45.6875 -39.609375 C 49.03125 -36.347656 50.703125 -31.515625 50.703125 -25.109375 L 50.703125 0 L 37.984375 0 L 37.984375 -23.15625 C 37.984375 -26.632812 37.222656 -29.226562 35.703125 -30.9375 C 34.179688 -32.644531 31.976562 -33.5 29.09375 -33.5 C 25.894531 -33.5 23.34375 -32.503906 21.4375 -30.515625 C 19.53125 -28.535156 18.578125 -25.59375 18.578125 -21.6875 L 18.578125 0 L 5.875 0 L 5.875 -60.484375 L 18.578125 -60.484375 L 18.578125 -39.296875 C 20.265625 -40.972656 22.300781 -42.257812 24.6875 -43.15625 C 27.082031 -44.050781 29.695312 -44.5 32.53125 -44.5 Z M 32.53125 -44.5 "/></g></g></g><g fill="#ffffff" fill-opacity="1"><g transform="translate(222.284658, 425.340668)"><g><path d="M 48.828125 -21.765625 C 48.828125 -21.597656 48.742188 -20.457031 48.578125 -18.34375 L 15.40625 -18.34375 C 16 -15.625 17.410156 -13.472656 19.640625 -11.890625 C 21.867188 -10.316406 24.640625 -9.53125 27.953125 -9.53125 C 30.242188 -9.53125 32.269531 -9.867188 34.03125 -10.546875 C 35.800781 -11.234375 37.445312 -12.3125 38.96875 -13.78125 L 45.734375 -6.4375 C 41.597656 -1.707031 35.566406 0.65625 27.640625 0.65625 C 22.691406 0.65625 18.3125 -0.304688 14.5 -2.234375 C 10.695312 -4.171875 7.765625 -6.847656 5.703125 -10.265625 C 3.640625 -13.691406 2.609375 -17.578125 2.609375 -21.921875 C 2.609375 -26.222656 3.625 -30.097656 5.65625 -33.546875 C 7.695312 -36.992188 10.5 -39.679688 14.0625 -41.609375 C 17.625 -43.535156 21.601562 -44.5 26 -44.5 C 30.289062 -44.5 34.175781 -43.578125 37.65625 -41.734375 C 41.132812 -39.890625 43.863281 -37.238281 45.84375 -33.78125 C 47.832031 -30.332031 48.828125 -26.328125 48.828125 -21.765625 Z M 26.078125 -34.890625 C 23.203125 -34.890625 20.785156 -34.070312 18.828125 -32.4375 C 16.867188 -30.8125 15.675781 -28.585938 15.25 -25.765625 L 36.84375 -25.765625 C 36.40625 -28.535156 35.207031 -30.75 33.25 -32.40625 C 31.300781 -34.0625 28.910156 -34.890625 26.078125 -34.890625 Z M 26.078125 -34.890625 "/></g></g></g><g fill="#ffffff" fill-opacity="1"><g transform="translate(273.717492, 425.340668)"><g/></g></g><g fill="#ffffff" fill-opacity="1"><g transform="translate(296.784835, 425.340668)"><g><path d="M 61.625 -57.0625 L 36.921875 0 L 23.890625 0 L -0.734375 -57.0625 L 13.53125 -57.0625 L 30.890625 -16.296875 L 48.5 -57.0625 Z M 61.625 -57.0625 "/></g></g></g><g fill="#ffffff" fill-opacity="1"><g transform="translate(357.591316, 425.340668)"><g><path d="M 23.5625 -44.5 C 30.351562 -44.5 35.566406 -42.882812 39.203125 -39.65625 C 42.847656 -36.425781 44.671875 -31.550781 44.671875 -25.03125 L 44.671875 0 L 32.765625 0 L 32.765625 -5.46875 C 30.378906 -1.382812 25.925781 0.65625 19.40625 0.65625 C 16.03125 0.65625 13.101562 0.0859375 10.625 -1.046875 C 8.15625 -2.191406 6.269531 -3.769531 4.96875 -5.78125 C 3.664062 -7.789062 3.015625 -10.078125 3.015625 -12.640625 C 3.015625 -16.710938 4.550781 -19.914062 7.625 -22.25 C 10.695312 -24.59375 15.4375 -25.765625 21.84375 -25.765625 L 31.953125 -25.765625 C 31.953125 -28.535156 31.109375 -30.664062 29.421875 -32.15625 C 27.742188 -33.65625 25.21875 -34.40625 21.84375 -34.40625 C 19.507812 -34.40625 17.210938 -34.035156 14.953125 -33.296875 C 12.703125 -32.566406 10.789062 -31.578125 9.21875 -30.328125 L 4.640625 -39.203125 C 7.035156 -40.890625 9.90625 -42.191406 13.25 -43.109375 C 16.59375 -44.035156 20.03125 -44.5 23.5625 -44.5 Z M 22.578125 -7.90625 C 24.753906 -7.90625 26.679688 -8.40625 28.359375 -9.40625 C 30.046875 -10.414062 31.242188 -11.898438 31.953125 -13.859375 L 31.953125 -18.34375 L 23.234375 -18.34375 C 18.015625 -18.34375 15.40625 -16.628906 15.40625 -13.203125 C 15.40625 -11.578125 16.039062 -10.285156 17.3125 -9.328125 C 18.59375 -8.378906 20.347656 -7.90625 22.578125 -7.90625 Z M 22.578125 -7.90625 "/></g></g></g><g fill="#ffffff" fill-opacity="1"><g transform="translate(407.883021, 425.340668)"><g><path d="M 31.796875 -44.5 C 35.867188 -44.5 39.578125 -43.5625 42.921875 -41.6875 C 46.265625 -39.820312 48.882812 -37.1875 50.78125 -33.78125 C 52.6875 -30.382812 53.640625 -26.429688 53.640625 -21.921875 C 53.640625 -17.410156 52.6875 -13.457031 50.78125 -10.0625 C 48.882812 -6.664062 46.265625 -4.03125 42.921875 -2.15625 C 39.578125 -0.28125 35.867188 0.65625 31.796875 0.65625 C 26.191406 0.65625 21.785156 -1.109375 18.578125 -4.640625 L 18.578125 15.8125 L 5.875 15.8125 L 5.875 -43.859375 L 18.015625 -43.859375 L 18.015625 -38.796875 C 21.171875 -42.597656 25.765625 -44.5 31.796875 -44.5 Z M 29.59375 -9.78125 C 32.851562 -9.78125 35.523438 -10.878906 37.609375 -13.078125 C 39.703125 -15.285156 40.75 -18.234375 40.75 -21.921875 C 40.75 -25.617188 39.703125 -28.566406 37.609375 -30.765625 C 35.523438 -32.972656 32.851562 -34.078125 29.59375 -34.078125 C 26.332031 -34.078125 23.65625 -32.972656 21.5625 -30.765625 C 19.46875 -28.566406 18.421875 -25.617188 18.421875 -21.921875 C 18.421875 -18.234375 19.46875 -15.285156 21.5625 -13.078125 C 23.65625 -10.878906 26.332031 -9.78125 29.59375 -9.78125 Z M 29.59375 -9.78125 "/></g></g></g><g fill="#ffffff" fill-opacity="1"><g transform="translate(464.124927, 425.340668)"><g><path d="M 48.828125 -21.765625 C 48.828125 -21.597656 48.742188 -20.457031 48.578125 -18.34375 L 15.40625 -18.34375 C 16 -15.625 17.410156 -13.472656 19.640625 -11.890625 C 21.867188 -10.316406 24.640625 -9.53125 27.953125 -9.53125 C 30.242188 -9.53125 32.269531 -9.867188 34.03125 -10.546875 C 35.800781 -11.234375 37.445312 -12.3125 38.96875 -13.78125 L 45.734375 -6.4375 C 41.597656 -1.707031 35.566406 0.65625 27.640625 0.65625 C 22.691406 0.65625 18.3125 -0.304688 14.5 -2.234375 C 10.695312 -4.171875 7.765625 -6.847656 5.703125 -10.265625 C 3.640625 -13.691406 2.609375 -17.578125 2.609375 -21.921875 C 2.609375 -26.222656 3.625 -30.097656 5.65625 -33.546875 C 7.695312 -36.992188 10.5 -39.679688 14.0625 -41.609375 C 17.625 -43.535156 21.601562 -44.5 26 -44.5 C 30.289062 -44.5 34.175781 -43.578125 37.65625 -41.734375 C 41.132812 -39.890625 43.863281 -37.238281 45.84375 -33.78125 C 47.832031 -30.332031 48.828125 -26.328125 48.828125 -21.765625 Z M 26.078125 -34.890625 C 23.203125 -34.890625 20.785156 -34.070312 18.828125 -32.4375 C 16.867188 -30.8125 15.675781 -28.585938 15.25 -25.765625 L 36.84375 -25.765625 C 36.40625 -28.535156 35.207031 -30.75 33.25 -32.40625 C 31.300781 -34.0625 28.910156 -34.890625 26.078125 -34.890625 Z M 26.078125 -34.890625 "/></g></g></g><g fill="#ffffff" fill-opacity="1"><g transform="translate(515.55776, 425.340668)"><g/></g></g><g fill="#ffffff" fill-opacity="1"><g transform="translate(538.625104, 425.340668)"><g><path d="M 6.765625 -57.0625 L 19.96875 -57.0625 L 19.96875 -10.765625 L 48.578125 -10.765625 L 48.578125 0 L 6.765625 0 Z M 6.765625 -57.0625 "/></g></g></g><g fill="#ffffff" fill-opacity="1"><g transform="translate(587.85716, 425.340668)"><g><path d="M 23.5625 -44.5 C 30.351562 -44.5 35.566406 -42.882812 39.203125 -39.65625 C 42.847656 -36.425781 44.671875 -31.550781 44.671875 -25.03125 L 44.671875 0 L 32.765625 0 L 32.765625 -5.46875 C 30.378906 -1.382812 25.925781 0.65625 19.40625 0.65625 C 16.03125 0.65625 13.101562 0.0859375 10.625 -1.046875 C 8.15625 -2.191406 6.269531 -3.769531 4.96875 -5.78125 C 3.664062 -7.789062 3.015625 -10.078125 3.015625 -12.640625 C 3.015625 -16.710938 4.550781 -19.914062 7.625 -22.25 C 10.695312 -24.59375 15.4375 -25.765625 21.84375 -25.765625 L 31.953125 -25.765625 C 31.953125 -28.535156 31.109375 -30.664062 29.421875 -32.15625 C 27.742188 -33.65625 25.21875 -34.40625 21.84375 -34.40625 C 19.507812 -34.40625 17.210938 -34.035156 14.953125 -33.296875 C 12.703125 -32.566406 10.789062 -31.578125 9.21875 -30.328125 L 4.640625 -39.203125 C 7.035156 -40.890625 9.90625 -42.191406 13.25 -43.109375 C 16.59375 -44.035156 20.03125 -44.5 23.5625 -44.5 Z M 22.578125 -7.90625 C 24.753906 -7.90625 26.679688 -8.40625 28.359375 -9.40625 C 30.046875 -10.414062 31.242188 -11.898438 31.953125 -13.859375 L 31.953125 -18.34375 L 23.234375 -18.34375 C 18.015625 -18.34375 15.40625 -16.628906 15.40625 -13.203125 C 15.40625 -11.578125 16.039062 -10.285156 17.3125 -9.328125 C 18.59375 -8.378906 20.347656 -7.90625 22.578125 -7.90625 Z M 22.578125 -7.90625 "/></g></g></g><g fill="#ffffff" fill-opacity="1"><g transform="translate(638.148866, 425.340668)"><g><path d="M 31.796875 -44.5 C 35.867188 -44.5 39.578125 -43.5625 42.921875 -41.6875 C 46.265625 -39.820312 48.882812 -37.1875 50.78125 -33.78125 C 52.6875 -30.382812 53.640625 -26.429688 53.640625 -21.921875 C 53.640625 -17.410156 52.6875 -13.457031 50.78125 -10.0625 C 48.882812 -6.664062 46.265625 -4.03125 42.921875 -2.15625 C 39.578125 -0.28125 35.867188 0.65625 31.796875 0.65625 C 25.765625 0.65625 21.171875 -1.242188 18.015625 -5.046875 L 18.015625 0 L 5.875 0 L 5.875 -60.484375 L 18.578125 -60.484375 L 18.578125 -39.203125 C 21.785156 -42.734375 26.191406 -44.5 31.796875 -44.5 Z M 29.59375 -9.78125 C 32.851562 -9.78125 35.523438 -10.878906 37.609375 -13.078125 C 39.703125 -15.285156 40.75 -18.234375 40.75 -21.921875 C 40.75 -25.617188 39.703125 -28.566406 37.609375 -30.765625 C 35.523438 -32.972656 32.851562 -34.078125 29.59375 -34.078125 C 26.332031 -34.078125 23.65625 -32.972656 21.5625 -30.765625 C 19.46875 -28.566406 18.421875 -25.617188 18.421875 -21.921875 C 18.421875 -18.234375 19.46875 -15.285156 21.5625 -13.078125 C 23.65625 -10.878906 26.332031 -9.78125 29.59375 -9.78125 Z M 29.59375 -9.78125 "/></g></g></g></svg>